<svg width="201" height="36" viewBox="0 0 201 36" fill="none" xmlns="http://www.w3.org/2000/svg">
<path d="M0 16C0 7.16344 7.16344 0 16 0H185C193.837 0 201 7.16344 201 16V20C201 28.8366 193.837 36 185 36H16C7.16345 36 0 28.8366 0 20V16Z" fill="#A1DCA8"/>
<path d="M26.416 19.012L24.832 20.772V24.5H23.488V13.332H24.832V19.268H24.88L26.48 17.332L29.856 13.332H31.504L27.344 18.116L31.792 24.5H30.128L26.416 19.012ZM40.6206 24.5L39.5006 21.204H34.9886L33.8686 24.5H32.5086L36.4126 13.332H38.1246L42.0286 24.5H40.6206ZM37.2766 14.58H37.1966L35.3086 20.02H39.1646L37.2766 14.58ZM45.2226 24.5H43.8786V13.332H48.3266C49.308 13.332 50.0706 13.604 50.6146 14.148C51.1693 14.692 51.4466 15.476 51.4466 16.5C51.4466 17.3213 51.2546 17.9987 50.8706 18.532C50.4973 19.0547 49.9426 19.4013 49.2066 19.572L51.7666 24.5H50.2466L47.8306 19.7H45.2226V24.5ZM48.3266 18.548C48.86 18.548 49.2706 18.4093 49.5586 18.132C49.8573 17.8547 50.0066 17.46 50.0066 16.948V16.116C50.0066 15.604 49.8573 15.2093 49.5586 14.932C49.2706 14.6547 48.86 14.516 48.3266 14.516H45.2226V18.548H48.3266ZM54.113 24.5V13.332H55.457V23.316H60.209V24.5H54.113ZM61.104 20.324V18.948H65.28V20.324H61.104ZM74.5581 24.5L73.4381 21.204H68.9261L67.8061 24.5H66.4461L70.3501 13.332H72.0621L75.9661 24.5H74.5581ZM71.2141 14.58H71.1341L69.2461 20.02H73.1021L71.2141 14.58ZM78.877 13.332V20.244C78.877 21.3107 79.0743 22.1213 79.469 22.676C79.8637 23.22 80.557 23.492 81.549 23.492C82.541 23.492 83.2343 23.22 83.629 22.676C84.0237 22.1213 84.221 21.3107 84.221 20.244V13.332H85.565V19.924C85.565 20.7347 85.4903 21.4387 85.341 22.036C85.2023 22.6333 84.973 23.1293 84.653 23.524C84.333 23.9187 83.9117 24.212 83.389 24.404C82.877 24.596 82.2477 24.692 81.501 24.692C80.7543 24.692 80.125 24.596 79.613 24.404C79.1117 24.212 78.7063 23.9187 78.397 23.524C78.0877 23.1293 77.8637 22.6333 77.725 22.036C77.597 21.4387 77.533 20.7347 77.533 19.924V13.332H78.877ZM95.6888 22.868H95.6408C95.5021 23.3907 95.1608 23.828 94.6168 24.18C94.0834 24.5213 93.3901 24.692 92.5368 24.692C91.8541 24.692 91.2248 24.5693 90.6488 24.324C90.0834 24.068 89.5981 23.7 89.1928 23.22C88.7874 22.7293 88.4674 22.1267 88.2328 21.412C88.0088 20.6867 87.8968 19.8547 87.8968 18.916C87.8968 17.988 88.0088 17.1667 88.2328 16.452C88.4568 15.7267 88.7768 15.124 89.1928 14.644C89.6088 14.1533 90.1101 13.78 90.6968 13.524C91.2834 13.268 91.9341 13.14 92.6488 13.14C93.6514 13.14 94.4888 13.364 95.1608 13.812C95.8328 14.26 96.3501 14.852 96.7128 15.588L95.6088 16.26C95.3528 15.6627 94.9688 15.1933 94.4568 14.852C93.9554 14.5107 93.3528 14.34 92.6488 14.34C92.1581 14.34 91.7101 14.4307 91.3048 14.612C90.8994 14.7827 90.5474 15.028 90.2488 15.348C89.9608 15.668 89.7368 16.052 89.5768 16.5C89.4168 16.948 89.3368 17.4493 89.3368 18.004V19.812C89.3368 20.3667 89.4168 20.8733 89.5768 21.332C89.7368 21.78 89.9608 22.164 90.2488 22.484C90.5474 22.804 90.9101 23.0547 91.3368 23.236C91.7634 23.4067 92.2434 23.492 92.7768 23.492C93.1608 23.492 93.5234 23.444 93.8648 23.348C94.2168 23.2413 94.5208 23.0867 94.7768 22.884C95.0434 22.6813 95.2514 22.4307 95.4008 22.132C95.5501 21.8227 95.6248 21.46 95.6248 21.044V19.94H93.1608V18.756H96.9368V24.5H95.6888V22.868ZM100.846 13.332V20.244C100.846 21.3107 101.043 22.1213 101.438 22.676C101.832 23.22 102.526 23.492 103.518 23.492C104.51 23.492 105.203 23.22 105.598 22.676C105.992 22.1213 106.19 21.3107 106.19 20.244V13.332H107.534V19.924C107.534 20.7347 107.459 21.4387 107.31 22.036C107.171 22.6333 106.942 23.1293 106.622 23.524C106.302 23.9187 105.88 24.212 105.358 24.404C104.846 24.596 104.216 24.692 103.47 24.692C102.723 24.692 102.094 24.596 101.582 24.404C101.08 24.212 100.675 23.9187 100.366 23.524C100.056 23.1293 99.8324 22.6333 99.6938 22.036C99.5658 21.4387 99.5018 20.7347 99.5018 19.924V13.332H100.846ZM113.562 24.692C112.655 24.692 111.882 24.5213 111.242 24.18C110.602 23.828 110.058 23.348 109.61 22.74L110.602 21.908C110.996 22.4307 111.434 22.8307 111.914 23.108C112.394 23.3747 112.959 23.508 113.61 23.508C114.41 23.508 115.018 23.316 115.434 22.932C115.86 22.548 116.074 22.036 116.074 21.396C116.074 20.8627 115.914 20.452 115.594 20.164C115.274 19.876 114.746 19.6467 114.01 19.476L113.098 19.268C112.074 19.0333 111.29 18.6813 110.746 18.212C110.212 17.732 109.946 17.06 109.946 16.196C109.946 15.7053 110.036 15.268 110.218 14.884C110.399 14.5 110.65 14.18 110.97 13.924C111.3 13.668 111.69 13.476 112.138 13.348C112.596 13.2093 113.098 13.14 113.641 13.14C114.484 13.14 115.204 13.2947 115.802 13.604C116.41 13.9133 116.922 14.3667 117.338 14.964L116.33 15.7C116.02 15.2733 115.647 14.9373 115.21 14.692C114.772 14.4467 114.228 14.324 113.578 14.324C112.863 14.324 112.298 14.4787 111.882 14.788C111.476 15.0867 111.274 15.54 111.274 16.148C111.274 16.6813 111.444 17.0867 111.786 17.364C112.138 17.6307 112.666 17.844 113.37 18.004L114.282 18.212C115.38 18.4573 116.175 18.8307 116.666 19.332C117.156 19.8333 117.402 20.5 117.402 21.332C117.402 21.844 117.311 22.308 117.13 22.724C116.959 23.14 116.708 23.492 116.378 23.78C116.047 24.068 115.642 24.292 115.162 24.452C114.692 24.612 114.159 24.692 113.562 24.692ZM123.279 14.516V24.5H121.935V14.516H118.383V13.332H126.831V14.516H123.279ZM127.495 20.324V18.948H131.671V20.324H127.495ZM134.269 24.5V13.332H138.717C139.72 13.332 140.488 13.62 141.021 14.196C141.565 14.7613 141.837 15.54 141.837 16.532C141.837 17.524 141.565 18.308 141.021 18.884C140.488 19.4493 139.72 19.732 138.717 19.732H135.613V24.5H134.269ZM135.613 18.548H138.717C139.251 18.548 139.661 18.4093 139.949 18.132C140.248 17.8547 140.397 17.46 140.397 16.948V16.116C140.397 15.604 140.248 15.2093 139.949 14.932C139.661 14.6547 139.251 14.516 138.717 14.516H135.613V18.548ZM143.972 24.5V13.332H145.316V23.316H150.068V24.5H143.972ZM159.277 24.5L158.157 21.204H153.645L152.525 24.5H151.165L155.069 13.332H156.781L160.685 24.5H159.277ZM155.933 14.58H155.853L153.965 20.02H157.821L155.933 14.58ZM165.248 14.516V24.5H163.904V14.516H160.352V13.332H168.8V14.516H165.248ZM177.86 24.5H169.732V23.284L176.18 14.516H170.068V13.332H177.636V14.548L171.172 23.316H177.86V24.5Z" fill="black"/>
</svg>
