<svg width="201" height="36" viewBox="0 0 201 36" fill="none" xmlns="http://www.w3.org/2000/svg">
<path d="M0 16C0 7.16344 7.16344 0 16 0H185C193.837 0 201 7.16344 201 16V20C201 28.8366 193.837 36 185 36H16C7.16345 36 0 28.8366 0 20V16Z" fill="#A1DCA8"/>
<path d="M41.48 24.5L40.36 21.204H35.848L34.728 24.5H33.368L37.272 13.332H38.984L42.888 24.5H41.48ZM38.136 14.58H38.056L36.168 20.02H40.024L38.136 14.58ZM44.738 24.5V13.332H46.082V23.316H50.834V24.5H44.738ZM52.7536 24.5V13.332H59.5696V14.516H54.0976V18.26H59.2496V19.444H54.0976V23.316H59.5696V24.5H52.7536ZM70.0178 24.5H68.4018L65.4738 19.812H65.4418L62.5138 24.5H60.9778L64.6258 18.82L61.0738 13.332H62.6898L65.4898 17.78H65.5218L68.3858 13.332H69.9218L66.3378 18.772L70.0178 24.5ZM78.9644 24.5L77.8444 21.204H73.3324L72.2124 24.5H70.8524L74.7564 13.332H76.4684L80.3724 24.5H78.9644ZM75.6204 14.58H75.5404L73.6524 20.02H77.5084L75.6204 14.58ZM84.9264 17.684L83.5824 15.204H83.5344V24.5H82.2224V13.332H83.7744L87.8544 20.148L89.1984 22.628H89.2464V13.332H90.5584V24.5H89.0064L84.9264 17.684ZM93.5349 13.332H97.2789C97.9722 13.332 98.6015 13.4493 99.1669 13.684C99.7322 13.9187 100.212 14.2707 100.607 14.74C101.012 15.1987 101.322 15.78 101.535 16.484C101.748 17.1773 101.855 17.988 101.855 18.916C101.855 19.844 101.748 20.66 101.535 21.364C101.322 22.0573 101.012 22.6387 100.607 23.108C100.212 23.5667 99.7322 23.9133 99.1669 24.148C98.6015 24.3827 97.9722 24.5 97.2789 24.5H93.5349V13.332ZM97.2789 23.316C97.7375 23.316 98.1589 23.2413 98.5429 23.092C98.9269 22.932 99.2575 22.7027 99.5349 22.404C99.8122 22.1053 100.026 21.7427 100.175 21.316C100.335 20.8787 100.415 20.3827 100.415 19.828V18.004C100.415 17.4493 100.335 16.9587 100.175 16.532C100.026 16.0947 99.8122 15.7267 99.5349 15.428C99.2575 15.1293 98.9269 14.9053 98.5429 14.756C98.1589 14.596 97.7375 14.516 97.2789 14.516H94.8789V23.316H97.2789ZM104.269 24.5V13.332H111.085V14.516H105.613V18.26H110.765V19.444H105.613V23.316H111.085V24.5H104.269ZM114.941 24.5H113.597V13.332H118.045C119.027 13.332 119.789 13.604 120.333 14.148C120.888 14.692 121.165 15.476 121.165 16.5C121.165 17.3213 120.973 17.9987 120.589 18.532C120.216 19.0547 119.661 19.4013 118.925 19.572L121.485 24.5H119.965L117.549 19.7H114.941V24.5ZM118.045 18.548C118.579 18.548 118.989 18.4093 119.277 18.132C119.576 17.8547 119.725 17.46 119.725 16.948V16.116C119.725 15.604 119.576 15.2093 119.277 14.932C118.989 14.6547 118.579 14.516 118.045 14.516H114.941V18.548H118.045ZM123.832 24.5V13.332H128.28C129.282 13.332 130.05 13.62 130.584 14.196C131.128 14.7613 131.4 15.54 131.4 16.532C131.4 17.524 131.128 18.308 130.584 18.884C130.05 19.4493 129.282 19.732 128.28 19.732H125.176V24.5H123.832ZM125.176 18.548H128.28C128.813 18.548 129.224 18.4093 129.512 18.132C129.81 17.8547 129.96 17.46 129.96 16.948V16.116C129.96 15.604 129.81 15.2093 129.512 14.932C129.224 14.6547 128.813 14.516 128.28 14.516H125.176V18.548ZM133.535 24.5V13.332H134.879V23.316H139.631V24.5H133.535ZM148.839 24.5L147.719 21.204H143.207L142.087 24.5H140.727L144.631 13.332H146.343L150.247 24.5H148.839ZM145.495 14.58H145.415L143.527 20.02H147.383L145.495 14.58ZM154.811 14.516V24.5H153.467V14.516H149.915V13.332H158.363V14.516H154.811ZM167.423 24.5H159.295V23.284L165.743 14.516H159.631V13.332H167.199V14.548L160.735 23.316H167.423V24.5Z" fill="black"/>
</svg>
