<svg width="356" height="36" viewBox="0 0 356 36" fill="none" xmlns="http://www.w3.org/2000/svg">
<path d="M0 16C0 7.16344 7.16344 0 16 0H340C348.837 0 356 7.16344 356 16V20C356 28.8366 348.837 36 340 36H16C7.16344 36 0 28.8366 0 20V16Z" fill="white"/>
<path d="M118.98 24.5L117.86 21.204H113.348L112.228 24.5H110.868L114.772 13.332H116.484L120.388 24.5H118.98ZM115.636 14.58H115.556L113.668 20.02H117.524L115.636 14.58ZM122.238 24.5V13.332H123.582V23.316H128.334V24.5H122.238ZM130.254 24.5V13.332H137.07V14.516H131.598V18.26H136.75V19.444H131.598V23.316H137.07V24.5H130.254ZM147.518 24.5H145.902L142.974 19.812H142.942L140.014 24.5H138.478L142.126 18.82L138.574 13.332H140.19L142.99 17.78H143.022L145.886 13.332H147.422L143.838 18.772L147.518 24.5ZM156.464 24.5L155.344 21.204H150.832L149.712 24.5H148.352L152.256 13.332H153.968L157.872 24.5H156.464ZM153.12 14.58H153.04L151.152 20.02H155.008L153.12 14.58ZM162.426 17.684L161.082 15.204H161.034V24.5H159.722V13.332H161.274L165.354 20.148L166.698 22.628H166.746V13.332H168.058V24.5H166.506L162.426 17.684ZM171.035 13.332H174.779C175.472 13.332 176.102 13.4493 176.667 13.684C177.232 13.9187 177.712 14.2707 178.107 14.74C178.512 15.1987 178.822 15.78 179.035 16.484C179.248 17.1773 179.355 17.988 179.355 18.916C179.355 19.844 179.248 20.66 179.035 21.364C178.822 22.0573 178.512 22.6387 178.107 23.108C177.712 23.5667 177.232 23.9133 176.667 24.148C176.102 24.3827 175.472 24.5 174.779 24.5H171.035V13.332ZM174.779 23.316C175.238 23.316 175.659 23.2413 176.043 23.092C176.427 22.932 176.758 22.7027 177.035 22.404C177.312 22.1053 177.526 21.7427 177.675 21.316C177.835 20.8787 177.915 20.3827 177.915 19.828V18.004C177.915 17.4493 177.835 16.9587 177.675 16.532C177.526 16.0947 177.312 15.7267 177.035 15.428C176.758 15.1293 176.427 14.9053 176.043 14.756C175.659 14.596 175.238 14.516 174.779 14.516H172.379V23.316H174.779ZM181.769 24.5V13.332H188.585V14.516H183.113V18.26H188.265V19.444H183.113V23.316H188.585V24.5H181.769ZM192.441 24.5H191.097V13.332H195.545C196.527 13.332 197.289 13.604 197.833 14.148C198.388 14.692 198.665 15.476 198.665 16.5C198.665 17.3213 198.473 17.9987 198.089 18.532C197.716 19.0547 197.161 19.4013 196.425 19.572L198.985 24.5H197.465L195.049 19.7H192.441V24.5ZM195.545 18.548C196.079 18.548 196.489 18.4093 196.777 18.132C197.076 17.8547 197.225 17.46 197.225 16.948V16.116C197.225 15.604 197.076 15.2093 196.777 14.932C196.489 14.6547 196.079 14.516 195.545 14.516H192.441V18.548H195.545ZM201.332 24.5V13.332H205.78C206.782 13.332 207.55 13.62 208.084 14.196C208.628 14.7613 208.9 15.54 208.9 16.532C208.9 17.524 208.628 18.308 208.084 18.884C207.55 19.4493 206.782 19.732 205.78 19.732H202.676V24.5H201.332ZM202.676 18.548H205.78C206.313 18.548 206.724 18.4093 207.012 18.132C207.31 17.8547 207.46 17.46 207.46 16.948V16.116C207.46 15.604 207.31 15.2093 207.012 14.932C206.724 14.6547 206.313 14.516 205.78 14.516H202.676V18.548ZM211.035 24.5V13.332H212.379V23.316H217.131V24.5H211.035ZM226.339 24.5L225.219 21.204H220.707L219.587 24.5H218.227L222.131 13.332H223.843L227.747 24.5H226.339ZM222.995 14.58H222.915L221.027 20.02H224.883L222.995 14.58ZM232.311 14.516V24.5H230.967V14.516H227.415V13.332H235.863V14.516H232.311ZM244.923 24.5H236.795V23.284L243.243 14.516H237.131V13.332H244.699V14.548L238.235 23.316H244.923V24.5Z" fill="black"/>
<path d="M16 1H340V-1H16V1ZM355 16V20H357V16H355ZM340 35H16V37H340V35ZM1 20V16H-1V20H1ZM16 35C7.71573 35 1 28.2843 1 20H-1C-1 29.3888 6.61116 37 16 37V35ZM355 20C355 28.2843 348.284 35 340 35V37C349.389 37 357 29.3888 357 20H355ZM340 1C348.284 1 355 7.71573 355 16H357C357 6.61116 349.389 -1 340 -1V1ZM16 -1C6.61116 -1 -1 6.61116 -1 16H1C1 7.71573 7.71573 1 16 1V-1Z" fill="black"/>
</svg>
