<svg xmlns="http://www.w3.org/2000/svg" width="63" height="63" fill="none" viewBox="0 0 63 63">
  <path fill="#ABAAF5" d="M17 0L0 8.5 9 63l24-13.5L46 48l9-9.5 8-31-25 7L17 0z"/>
  <path fill="#5A59A6" d="M30.352 43.685c-2.977 0-5.14-.814-6.487-2.443-1.336-1.64-2.004-3.633-2.004-5.976h3.305c.14 1.629.445 2.812.914 3.55.82 1.325 2.303 1.987 4.447 1.987 1.664 0 3-.446 4.008-1.336 1.008-.89 1.512-2.04 1.512-3.445 0-1.735-.533-2.948-1.6-3.64-1.054-.69-2.525-1.036-4.412-1.036-.21 0-.428.006-.65.017-.211 0-.428.006-.65.018v-2.795c.328.035.603.059.826.07.222.012.462.018.72.018 1.184 0 2.157-.188 2.918-.563 1.336-.656 2.004-1.828 2.004-3.515 0-1.254-.445-2.221-1.336-2.9-.89-.68-1.927-1.02-3.111-1.02-2.11 0-3.569.703-4.377 2.11-.445.773-.697 1.874-.756 3.304h-3.129c0-1.875.375-3.469 1.125-4.781 1.29-2.344 3.557-3.516 6.803-3.516 2.566 0 4.553.574 5.959 1.723 1.406 1.136 2.11 2.789 2.11 4.957 0 1.547-.417 2.8-1.249 3.761-.515.598-1.183 1.067-2.004 1.407 1.325.363 2.356 1.066 3.094 2.109.75 1.031 1.125 2.297 1.125 3.797 0 2.402-.791 4.36-2.373 5.871-1.582 1.512-3.826 2.267-6.732 2.267z"/>
</svg>
