<svg width="356" height="36" viewBox="0 0 356 36" fill="none" xmlns="http://www.w3.org/2000/svg">
<path d="M0 16C0 7.16344 7.16344 0 16 0H340C348.837 0 356 7.16344 356 16V20C356 28.8366 348.837 36 340 36H16C7.16344 36 0 28.8366 0 20V16Z" fill="white"/>
<path d="M103.916 19.012L102.332 20.772V24.5H100.988V13.332H102.332V19.268H102.38L103.98 17.332L107.356 13.332H109.004L104.844 18.116L109.292 24.5H107.628L103.916 19.012ZM118.121 24.5L117.001 21.204H112.489L111.369 24.5H110.009L113.913 13.332H115.625L119.529 24.5H118.121ZM114.777 14.58H114.697L112.809 20.02H116.665L114.777 14.58ZM122.723 24.5H121.379V13.332H125.827C126.808 13.332 127.571 13.604 128.115 14.148C128.669 14.692 128.947 15.476 128.947 16.5C128.947 17.3213 128.755 17.9987 128.371 18.532C127.997 19.0547 127.443 19.4013 126.707 19.572L129.267 24.5H127.747L125.331 19.7H122.723V24.5ZM125.827 18.548C126.36 18.548 126.771 18.4093 127.059 18.132C127.357 17.8547 127.507 17.46 127.507 16.948V16.116C127.507 15.604 127.357 15.2093 127.059 14.932C126.771 14.6547 126.36 14.516 125.827 14.516H122.723V18.548H125.827ZM131.613 24.5V13.332H132.957V23.316H137.709V24.5H131.613ZM138.604 20.324V18.948H142.78V20.324H138.604ZM152.058 24.5L150.938 21.204H146.426L145.306 24.5H143.946L147.85 13.332H149.562L153.466 24.5H152.058ZM148.714 14.58H148.634L146.746 20.02H150.602L148.714 14.58ZM156.377 13.332V20.244C156.377 21.3107 156.574 22.1213 156.969 22.676C157.364 23.22 158.057 23.492 159.049 23.492C160.041 23.492 160.734 23.22 161.129 22.676C161.524 22.1213 161.721 21.3107 161.721 20.244V13.332H163.065V19.924C163.065 20.7347 162.99 21.4387 162.841 22.036C162.702 22.6333 162.473 23.1293 162.153 23.524C161.833 23.9187 161.412 24.212 160.889 24.404C160.377 24.596 159.748 24.692 159.001 24.692C158.254 24.692 157.625 24.596 157.113 24.404C156.612 24.212 156.206 23.9187 155.897 23.524C155.588 23.1293 155.364 22.6333 155.225 22.036C155.097 21.4387 155.033 20.7347 155.033 19.924V13.332H156.377ZM173.189 22.868H173.141C173.002 23.3907 172.661 23.828 172.117 24.18C171.583 24.5213 170.89 24.692 170.037 24.692C169.354 24.692 168.725 24.5693 168.149 24.324C167.583 24.068 167.098 23.7 166.693 23.22C166.287 22.7293 165.967 22.1267 165.733 21.412C165.509 20.6867 165.397 19.8547 165.397 18.916C165.397 17.988 165.509 17.1667 165.733 16.452C165.957 15.7267 166.277 15.124 166.693 14.644C167.109 14.1533 167.61 13.78 168.197 13.524C168.783 13.268 169.434 13.14 170.149 13.14C171.151 13.14 171.989 13.364 172.661 13.812C173.333 14.26 173.85 14.852 174.213 15.588L173.109 16.26C172.853 15.6627 172.469 15.1933 171.957 14.852C171.455 14.5107 170.853 14.34 170.149 14.34C169.658 14.34 169.21 14.4307 168.805 14.612C168.399 14.7827 168.047 15.028 167.749 15.348C167.461 15.668 167.237 16.052 167.077 16.5C166.917 16.948 166.837 17.4493 166.837 18.004V19.812C166.837 20.3667 166.917 20.8733 167.077 21.332C167.237 21.78 167.461 22.164 167.749 22.484C168.047 22.804 168.41 23.0547 168.837 23.236C169.263 23.4067 169.743 23.492 170.277 23.492C170.661 23.492 171.023 23.444 171.365 23.348C171.717 23.2413 172.021 23.0867 172.277 22.884C172.543 22.6813 172.751 22.4307 172.901 22.132C173.05 21.8227 173.125 21.46 173.125 21.044V19.94H170.661V18.756H174.437V24.5H173.189V22.868ZM178.346 13.332V20.244C178.346 21.3107 178.543 22.1213 178.938 22.676C179.332 23.22 180.026 23.492 181.018 23.492C182.01 23.492 182.703 23.22 183.098 22.676C183.492 22.1213 183.69 21.3107 183.69 20.244V13.332H185.034V19.924C185.034 20.7347 184.959 21.4387 184.81 22.036C184.671 22.6333 184.442 23.1293 184.122 23.524C183.802 23.9187 183.38 24.212 182.858 24.404C182.346 24.596 181.716 24.692 180.97 24.692C180.223 24.692 179.594 24.596 179.082 24.404C178.58 24.212 178.175 23.9187 177.866 23.524C177.556 23.1293 177.332 22.6333 177.194 22.036C177.066 21.4387 177.002 20.7347 177.002 19.924V13.332H178.346ZM191.062 24.692C190.155 24.692 189.382 24.5213 188.742 24.18C188.102 23.828 187.558 23.348 187.11 22.74L188.102 21.908C188.496 22.4307 188.934 22.8307 189.414 23.108C189.894 23.3747 190.459 23.508 191.11 23.508C191.91 23.508 192.518 23.316 192.934 22.932C193.36 22.548 193.574 22.036 193.574 21.396C193.574 20.8627 193.414 20.452 193.094 20.164C192.774 19.876 192.246 19.6467 191.51 19.476L190.598 19.268C189.574 19.0333 188.79 18.6813 188.246 18.212C187.712 17.732 187.446 17.06 187.446 16.196C187.446 15.7053 187.536 15.268 187.718 14.884C187.899 14.5 188.15 14.18 188.47 13.924C188.8 13.668 189.19 13.476 189.638 13.348C190.096 13.2093 190.598 13.14 191.141 13.14C191.984 13.14 192.704 13.2947 193.302 13.604C193.91 13.9133 194.422 14.3667 194.838 14.964L193.83 15.7C193.52 15.2733 193.147 14.9373 192.71 14.692C192.272 14.4467 191.728 14.324 191.078 14.324C190.363 14.324 189.798 14.4787 189.382 14.788C188.976 15.0867 188.774 15.54 188.774 16.148C188.774 16.6813 188.944 17.0867 189.286 17.364C189.638 17.6307 190.166 17.844 190.87 18.004L191.782 18.212C192.88 18.4573 193.675 18.8307 194.166 19.332C194.656 19.8333 194.902 20.5 194.902 21.332C194.902 21.844 194.811 22.308 194.63 22.724C194.459 23.14 194.208 23.492 193.878 23.78C193.547 24.068 193.142 24.292 192.662 24.452C192.192 24.612 191.659 24.692 191.062 24.692ZM200.779 14.516V24.5H199.435V14.516H195.883V13.332H204.331V14.516H200.779ZM204.995 20.324V18.948H209.171V20.324H204.995ZM211.769 24.5V13.332H216.217C217.22 13.332 217.988 13.62 218.521 14.196C219.065 14.7613 219.337 15.54 219.337 16.532C219.337 17.524 219.065 18.308 218.521 18.884C217.988 19.4493 217.22 19.732 216.217 19.732H213.113V24.5H211.769ZM213.113 18.548H216.217C216.751 18.548 217.161 18.4093 217.449 18.132C217.748 17.8547 217.897 17.46 217.897 16.948V16.116C217.897 15.604 217.748 15.2093 217.449 14.932C217.161 14.6547 216.751 14.516 216.217 14.516H213.113V18.548ZM221.472 24.5V13.332H222.816V23.316H227.568V24.5H221.472ZM236.777 24.5L235.657 21.204H231.145L230.025 24.5H228.665L232.569 13.332H234.281L238.185 24.5H236.777ZM233.433 14.58H233.353L231.465 20.02H235.321L233.433 14.58ZM242.748 14.516V24.5H241.404V14.516H237.852V13.332H246.3V14.516H242.748ZM255.36 24.5H247.232V23.284L253.68 14.516H247.568V13.332H255.136V14.548L248.672 23.316H255.36V24.5Z" fill="black"/>
<path d="M16 1H340V-1H16V1ZM355 16V20H357V16H355ZM340 35H16V37H340V35ZM1 20V16H-1V20H1ZM16 35C7.71573 35 1 28.2843 1 20H-1C-1 29.3888 6.61116 37 16 37V35ZM355 20C355 28.2843 348.284 35 340 35V37C349.389 37 357 29.3888 357 20H355ZM340 1C348.284 1 355 7.71573 355 16H357C357 6.61116 349.389 -1 340 -1V1ZM16 -1C6.61116 -1 -1 6.61116 -1 16H1C1 7.71573 7.71573 1 16 1V-1Z" fill="black"/>
</svg>
