<svg width="32" height="51" viewBox="0 0 32 51" fill="none" xmlns="http://www.w3.org/2000/svg">
<path d="M18 6.66019L9.52941 2V15.0485L2 22.0388L4.35294 45.8058L11.8824 44.4078L20.8235 50H30.7059V2.46602H20.8235L18 6.66019Z" fill="black" stroke="black" stroke-width="2"/>
<path d="M19.6062 25.3069V38.4084H16.032V25.3069H19.6062ZM17.825 20.1741C18.3562 20.1741 18.8133 20.2991 19.1961 20.5491C19.5789 20.7913 19.7703 21.2483 19.7703 21.9202C19.7703 22.5842 19.5789 23.0452 19.1961 23.303C18.8133 23.553 18.3562 23.678 17.825 23.678C17.2859 23.678 16.825 23.553 16.4422 23.303C16.0672 23.0452 15.8797 22.5842 15.8797 21.9202C15.8797 21.2483 16.0672 20.7913 16.4422 20.5491C16.825 20.2991 17.2859 20.1741 17.825 20.1741Z" fill="white"/>
</svg>
