<svg xmlns="http://www.w3.org/2000/svg" width="63" height="63" fill="none" viewBox="0 0 63 63">
  <path fill="#F6D152" d="M50.649 0H0l10.919 22.91V54L63 63 50.649 0z"/>
  <path fill="#917208" d="M22.125 43c.117-2.168.563-4.055 1.336-5.66.785-1.606 2.309-3.065 4.57-4.377l3.375-1.951c1.512-.88 2.572-1.63 3.182-2.25.96-.973 1.441-2.086 1.441-3.34 0-1.465-.44-2.625-1.318-3.48-.879-.868-2.05-1.301-3.516-1.301-2.168 0-3.668.82-4.5 2.46-.445.88-.691 2.098-.738 3.657H22.74c.035-2.192.44-3.979 1.213-5.361 1.371-2.438 3.791-3.657 7.26-3.657 2.883 0 4.986.78 6.31 2.338 1.336 1.559 2.004 3.293 2.004 5.203 0 2.016-.709 3.739-2.127 5.168-.82.832-2.29 1.84-4.412 3.024l-2.408 1.336c-1.148.632-2.05 1.236-2.707 1.81-1.172 1.02-1.91 2.15-2.215 3.393h13.746V43H22.125z"/>
</svg>
