<svg width="186" height="44" viewBox="0 0 186 44" fill="none" xmlns="http://www.w3.org/2000/svg">
<g filter="url(#filter0_d_337_3074)">
<path d="M3 19C3 10.1634 10.1634 3 19 3H165C173.837 3 181 10.1634 181 19V23C181 31.8366 173.837 39 165 39H19C10.1634 39 3 31.8366 3 23V19Z" fill="white"/>
<path d="M14.2744 27.5L11.5544 16.332H12.9784L14.1784 21.708L15.1064 25.884H15.1384L16.1784 21.708L17.5864 16.332H19.1224L20.4824 21.708L21.5224 25.868H21.5704L22.5304 21.708L23.7944 16.332H25.1704L22.3064 27.5H20.8184L19.3624 21.932L18.3384 17.836H18.3064L17.2504 21.932L15.7624 27.5H14.2744ZM33.9019 27.5L32.7819 24.204H28.2699L27.1499 27.5H25.7899L29.6939 16.332H31.4059L35.3099 27.5H33.9019ZM30.5579 17.58H30.4779L28.5899 23.02H32.4459L30.5579 17.58ZM37.1599 27.5V16.332H38.5039V26.316H43.2559V27.5H37.1599ZM48.1035 22.012L46.5195 23.772V27.5H45.1755V16.332H46.5195V22.268H46.5675L48.1675 20.332L51.5435 16.332H53.1915L49.0315 21.116L53.4795 27.5H51.8155L48.1035 22.012ZM62.8574 17.516V27.5H61.5134V17.516H57.9614V16.332H66.4094V17.516H62.8574ZM75.2456 22.444H69.5976V27.5H68.2536V16.332H69.5976V21.26H75.2456V16.332H76.5896V27.5H75.2456V22.444ZM80.9101 27.5H79.5661V16.332H84.0141C84.9955 16.332 85.7581 16.604 86.3021 17.148C86.8568 17.692 87.1341 18.476 87.1341 19.5C87.1341 20.3213 86.9421 20.9987 86.5581 21.532C86.1848 22.0547 85.6301 22.4013 84.8941 22.572L87.4541 27.5H85.9341L83.5181 22.7H80.9101V27.5ZM84.0141 21.548C84.5475 21.548 84.9581 21.4093 85.2461 21.132C85.5448 20.8547 85.6941 20.46 85.6941 19.948V19.116C85.6941 18.604 85.5448 18.2093 85.2461 17.932C84.9581 17.6547 84.5475 17.516 84.0141 17.516H80.9101V21.548H84.0141ZM93.8203 27.692C93.0949 27.692 92.4389 27.5693 91.8523 27.324C91.2763 27.068 90.7803 26.7 90.3643 26.22C89.9589 25.7293 89.6443 25.1267 89.4203 24.412C89.1963 23.6867 89.0843 22.8547 89.0843 21.916C89.0843 20.9773 89.1963 20.1507 89.4203 19.436C89.6443 18.7213 89.9589 18.1187 90.3643 17.628C90.7803 17.1373 91.2763 16.7693 91.8523 16.524C92.4389 16.268 93.0949 16.14 93.8203 16.14C94.5349 16.14 95.1856 16.268 95.7723 16.524C96.3589 16.7693 96.8549 17.1373 97.2603 17.628C97.6763 18.1187 97.9963 18.7213 98.2203 19.436C98.4443 20.1507 98.5563 20.9773 98.5563 21.916C98.5563 22.8547 98.4443 23.6867 98.2203 24.412C97.9963 25.1267 97.6763 25.7293 97.2603 26.22C96.8549 26.7 96.3589 27.068 95.7723 27.324C95.1856 27.5693 94.5349 27.692 93.8203 27.692ZM93.8203 26.492C94.3003 26.492 94.7429 26.4067 95.1483 26.236C95.5536 26.0653 95.9003 25.82 96.1883 25.5C96.4869 25.18 96.7163 24.796 96.8763 24.348C97.0363 23.9 97.1163 23.3987 97.1163 22.844V20.988C97.1163 20.4333 97.0363 19.932 96.8763 19.484C96.7163 19.036 96.4869 18.652 96.1883 18.332C95.9003 18.012 95.5536 17.7667 95.1483 17.596C94.7429 17.4253 94.3003 17.34 93.8203 17.34C93.3403 17.34 92.8976 17.4253 92.4923 17.596C92.0869 17.7667 91.7349 18.012 91.4363 18.332C91.1483 18.652 90.9243 19.036 90.7643 19.484C90.6043 19.932 90.5243 20.4333 90.5243 20.988V22.844C90.5243 23.3987 90.6043 23.9 90.7643 24.348C90.9243 24.796 91.1483 25.18 91.4363 25.5C91.7349 25.82 92.0869 26.0653 92.4923 26.236C92.8976 26.4067 93.3403 26.492 93.8203 26.492ZM102.236 16.332V23.244C102.236 24.3107 102.434 25.1213 102.828 25.676C103.223 26.22 103.916 26.492 104.908 26.492C105.9 26.492 106.594 26.22 106.988 25.676C107.383 25.1213 107.58 24.3107 107.58 23.244V16.332H108.924V22.924C108.924 23.7347 108.85 24.4387 108.7 25.036C108.562 25.6333 108.332 26.1293 108.012 26.524C107.692 26.9187 107.271 27.212 106.748 27.404C106.236 27.596 105.607 27.692 104.86 27.692C104.114 27.692 103.484 27.596 102.972 27.404C102.471 27.212 102.066 26.9187 101.756 26.524C101.447 26.1293 101.223 25.6333 101.084 25.036C100.956 24.4387 100.892 23.7347 100.892 22.924V16.332H102.236ZM119.048 25.868H119C118.861 26.3907 118.52 26.828 117.976 27.18C117.443 27.5213 116.749 27.692 115.896 27.692C115.213 27.692 114.584 27.5693 114.008 27.324C113.443 27.068 112.957 26.7 112.552 26.22C112.147 25.7293 111.827 25.1267 111.592 24.412C111.368 23.6867 111.256 22.8547 111.256 21.916C111.256 20.988 111.368 20.1667 111.592 19.452C111.816 18.7267 112.136 18.124 112.552 17.644C112.968 17.1533 113.469 16.78 114.056 16.524C114.643 16.268 115.293 16.14 116.008 16.14C117.011 16.14 117.848 16.364 118.52 16.812C119.192 17.26 119.709 17.852 120.072 18.588L118.968 19.26C118.712 18.6627 118.328 18.1933 117.816 17.852C117.315 17.5107 116.712 17.34 116.008 17.34C115.517 17.34 115.069 17.4307 114.664 17.612C114.259 17.7827 113.907 18.028 113.608 18.348C113.32 18.668 113.096 19.052 112.936 19.5C112.776 19.948 112.696 20.4493 112.696 21.004V22.812C112.696 23.3667 112.776 23.8733 112.936 24.332C113.096 24.78 113.32 25.164 113.608 25.484C113.907 25.804 114.269 26.0547 114.696 26.236C115.123 26.4067 115.603 26.492 116.136 26.492C116.52 26.492 116.883 26.444 117.224 26.348C117.576 26.2413 117.88 26.0867 118.136 25.884C118.403 25.6813 118.611 25.4307 118.76 25.132C118.909 24.8227 118.984 24.46 118.984 24.044V22.94H116.52V21.756H120.296V27.5H119.048V25.868ZM129.933 22.444H124.285V27.5H122.941V16.332H124.285V21.26H129.933V16.332H131.277V27.5H129.933V22.444Z" fill="black"/>
<circle cx="156.686" cy="20.6863" r="15.6863" fill="white"/>
<path d="M163.62 13.5763L163.794 13.1076L163.62 13.5763ZM162.767 20.4862L162.705 19.9901L162.767 20.4862ZM150.821 27.3461L150.929 26.8578L150.821 27.3461ZM165.601 27.6996C165.796 27.5044 165.796 27.1878 165.601 26.9925L162.419 23.8105C162.224 23.6153 161.907 23.6153 161.712 23.8105C161.517 24.0058 161.517 24.3224 161.712 24.5176L164.54 27.3461L161.712 30.1745C161.517 30.3698 161.517 30.6863 161.712 30.8816C161.907 31.0769 162.224 31.0769 162.419 30.8816L165.601 27.6996ZM148.599 13.7833C150.441 13.7833 153.784 13.6759 156.783 13.6592C158.303 13.6508 159.759 13.6649 160.952 13.7255C162.173 13.7874 163.044 13.8958 163.446 14.0451L163.794 13.1076C163.224 12.896 162.198 12.7874 161.003 12.7268C159.781 12.6648 158.303 12.6507 156.777 12.6592C153.684 12.6765 150.489 12.7833 148.599 12.7833V13.7833ZM163.446 14.0451C163.881 14.2063 164.273 14.602 164.557 15.1815C164.839 15.7566 164.99 16.4679 164.969 17.1715C164.947 17.8759 164.755 18.5383 164.389 19.0395C164.032 19.5292 163.492 19.8912 162.705 19.9901L162.829 20.9823C163.891 20.849 164.678 20.341 165.197 19.6288C165.708 18.9282 165.942 18.0569 165.968 17.2018C165.994 16.3458 165.813 15.4717 165.455 14.7414C165.099 14.0154 164.544 13.3858 163.794 13.1076L163.446 14.0451ZM162.705 19.9901C161.599 20.129 159.368 20.1307 157.086 20.0945C154.832 20.0587 152.541 19.9862 151.39 19.9862V20.9862C152.535 20.9862 154.784 21.058 157.07 21.0943C159.328 21.1302 161.638 21.1319 162.829 20.9823L162.705 19.9901ZM151.39 19.9862C150.137 19.9862 149.151 20.4011 148.468 21.0799C147.791 21.7536 147.446 22.6527 147.406 23.5644C147.325 25.3818 148.456 27.3362 150.713 27.8343L150.929 26.8578C149.203 26.477 148.343 25.0015 148.405 23.6087C148.436 22.9152 148.696 22.2642 149.173 21.789C149.646 21.3189 150.367 20.9862 151.39 20.9862V19.9862ZM150.713 27.8343C151.384 27.9823 152.417 28.0504 153.608 28.0759C154.811 28.1017 156.215 28.0845 157.645 28.0504C160.521 27.9817 163.483 27.8461 165.247 27.8461V26.8461C163.471 26.8461 160.455 26.983 157.621 27.0506C156.196 27.0847 154.81 27.1015 153.63 27.0762C152.438 27.0506 151.493 26.9824 150.929 26.8578L150.713 27.8343Z" fill="black"/>
<path d="M160.451 22.5498L165.471 27.5882" stroke="black"/>
<path d="M160.796 31.7922L165.627 26.9609" stroke="black"/>
</g>
<defs>
<filter id="filter0_d_337_3074" x="0" y="0" width="186" height="44" filterUnits="userSpaceOnUse" color-interpolation-filters="sRGB">
<feFlood flood-opacity="0" result="BackgroundImageFix"/>
<feColorMatrix in="SourceAlpha" type="matrix" values="0 0 0 0 0 0 0 0 0 0 0 0 0 0 0 0 0 0 127 0" result="hardAlpha"/>
<feOffset dx="1" dy="1"/>
<feGaussianBlur stdDeviation="2"/>
<feComposite in2="hardAlpha" operator="out"/>
<feColorMatrix type="matrix" values="0 0 0 0 0 0 0 0 0 0 0 0 0 0 0 0 0 0 0.2 0"/>
<feBlend mode="normal" in2="BackgroundImageFix" result="effect1_dropShadow_337_3074"/>
<feBlend mode="normal" in="SourceGraphic" in2="effect1_dropShadow_337_3074" result="shape"/>
</filter>
</defs>
</svg>
