<svg xmlns="http://www.w3.org/2000/svg" width="51" height="51" fill="none" viewBox="0 0 51 51">
  <circle cx="25.5" cy="25.5" r="25" fill="#000" stroke="#000"/>
  <path fill="#fff" d="M36.051 14.668l-.26.703.26-.703zm-1.36 11.013l-.093-.744.093.744zM15.652 36.614l-.161.732.161-.732zm23.523.53a.75.75 0 000-1.06l-4.773-4.773a.75.75 0 00-1.061 1.06l4.243 4.243-4.243 4.242a.75.75 0 001.06 1.061l4.774-4.773zM12.11 14.951c2.938 0 8.259-.17 13.043-.197 2.422-.014 4.744.009 6.648.105 1.944.099 3.34.272 3.988.512l.522-1.406c-.9-.334-2.529-.507-4.434-.604-1.947-.099-4.301-.12-6.733-.107-4.924.027-10.025.197-13.034.197v1.5zm23.68.42c.706.263 1.34.905 1.795 1.835.453.924.695 2.065.66 3.194-.033 1.13-.342 2.195-.931 3.003-.577.79-1.45 1.375-2.717 1.534l.187 1.488c1.679-.21 2.921-1.014 3.742-2.138.807-1.107 1.178-2.486 1.22-3.842.04-1.357-.247-2.742-.814-3.9-.563-1.15-1.44-2.142-2.62-2.58l-.523 1.406zm-1.193 9.566c-1.767.222-5.326.224-8.961.166-3.594-.057-7.243-.172-9.078-.172v1.5c1.825 0 5.411.114 9.054.172 3.6.057 7.277.06 9.172-.178l-.187-1.488zm-18.04-.006c-1.986 0-3.544.657-4.622 1.73-1.07 1.064-1.616 2.485-1.68 3.928-.127 2.876 1.663 5.969 5.235 6.757l.323-1.464c-2.775-.613-4.158-2.987-4.06-5.227.05-1.115.469-2.164 1.24-2.93.763-.76 1.925-1.294 3.565-1.294v-1.5zm-1.067 12.415c1.063.235 2.706.344 4.605.384 1.916.041 4.151.014 6.43-.04 4.582-.11 9.306-.326 12.118-.326v-1.5c-2.83 0-7.634.218-12.153.326-2.272.054-4.48.08-6.363.04-1.9-.04-3.41-.149-4.314-.348l-.323 1.464z"/>
</svg>
