<svg xmlns="http://www.w3.org/2000/svg" width="63" height="63" fill="none"><path fill="#77AAD9" d="M14.049 0 0 47.917 19 63l7.5-8.5 5.919-6.583 17.663 5.27L60 32.5l3-22-26-2L14.049 0z"/><path fill="#386894" d="M26.447 34.584c.211 1.805 1.05 3.053 2.514 3.744.75.352 1.617.527 2.602.527 1.875 0 3.263-.597 4.165-1.792.903-1.196 1.354-2.52 1.354-3.973 0-1.758-.539-3.117-1.617-4.078-1.067-.961-2.35-1.442-3.85-1.442-1.09 0-2.027.211-2.812.633a6.036 6.036 0 0 0-1.987 1.758l-2.742-.158L25.99 16.25h13.078v3.059H28.363l-1.072 6.996c.586-.446 1.143-.78 1.67-1.002.937-.387 2.021-.58 3.252-.58 2.309 0 4.265.744 5.871 2.232 1.605 1.488 2.408 3.375 2.408 5.66 0 2.38-.738 4.477-2.215 6.293-1.465 1.817-3.808 2.725-7.03 2.725-2.052 0-3.868-.574-5.45-1.723-1.57-1.16-2.45-2.935-2.637-5.326h3.287z"/></svg>